<svg width="324" height="324" viewBox="0 0 324 324" fill="none" xmlns="http://www.w3.org/2000/svg">
<path d="M276.551 276.551C299.207 253.895 314.636 225.03 320.887 193.605C327.138 162.18 323.93 129.607 311.668 100.005C299.407 70.4036 278.643 45.1027 252.002 27.3019C225.361 9.50111 194.04 -2.90535e-05 162 -3.05176e-05C129.959 -3.19817e-05 98.6381 9.5011 71.9973 27.3019C45.3566 45.1027 24.5926 70.4036 12.3312 100.005C0.069816 129.607 -3.13833 162.18 3.11248 193.605C9.36328 225.03 24.7923 253.895 47.4484 276.551L73.1762 250.823C55.6086 233.256 43.6449 210.873 38.798 186.506C33.9511 162.139 36.4387 136.882 45.9462 113.929C55.4537 90.9758 71.5542 71.3574 92.2115 57.5546C112.869 43.7518 137.155 36.3846 162 36.3846C186.844 36.3846 211.131 43.7518 231.788 57.5546C252.445 71.3574 268.546 90.9758 278.053 113.929C287.561 136.882 290.048 162.139 285.201 186.506C280.355 210.873 268.391 233.256 250.823 250.823L276.551 276.551Z" fill="#00E400"/>
<path d="M276.551 276.551C295.389 257.713 309.291 234.52 317.024 209.026C324.758 183.532 326.084 156.525 320.887 130.395C315.69 104.266 304.128 79.8221 287.227 59.2283C270.326 38.6344 248.608 22.5266 223.994 12.3315C199.381 2.1364 172.634 -1.83124 146.121 0.780042C119.608 3.39132 94.1486 12.5009 71.9973 27.3019C49.8461 42.1029 31.687 62.1384 19.1285 85.6337C6.56995 109.129 -0.000301153 135.359 -0.000305176 162L36.3843 162C36.3843 141.342 41.4789 121.004 51.2168 102.785C60.9547 84.5669 75.0354 69.0313 92.2115 57.5546C109.388 46.0778 129.129 39.0142 149.687 36.9894C170.245 34.9647 190.986 38.0412 210.071 45.9465C229.156 53.8518 245.997 66.3419 259.102 82.3104C272.207 98.2789 281.171 117.233 285.201 137.494C289.232 157.754 288.203 178.696 282.206 198.464C276.21 218.232 265.43 236.216 250.823 250.823L276.551 276.551Z" fill="#FFFF00"/>
<path d="M276.551 276.551C291.594 261.508 303.527 243.649 311.668 223.995C319.809 204.34 324 183.274 324 162C324 140.726 319.809 119.66 311.668 100.005C303.527 80.3505 291.594 62.4918 276.551 47.4487C261.508 32.4056 243.649 20.4727 223.994 12.3315C204.34 4.19022 183.274 -3.04965e-05 162 -3.05176e-05C140.726 -3.05387e-05 119.66 4.19022 100.005 12.3315C80.3502 20.4727 62.4915 32.4056 47.4484 47.4487L73.1762 73.1765C84.8407 61.512 98.6884 52.2592 113.929 45.9465C129.169 39.6337 145.504 36.3846 162 36.3846C178.496 36.3846 194.83 39.6337 210.071 45.9465C225.311 52.2592 239.159 61.512 250.823 73.1765C262.488 84.8409 271.74 98.6887 278.053 113.929C284.366 129.169 287.615 145.504 287.615 162C287.615 178.496 284.366 194.831 278.053 210.071C271.74 225.311 262.488 239.159 250.823 250.823L276.551 276.551Z" fill="#FF7E00"/>
<path d="M276.551 276.551C299.207 253.895 314.636 225.03 320.887 193.605C327.138 162.18 323.93 129.607 311.668 100.005C299.407 70.4036 278.643 45.1027 252.002 27.3019C225.361 9.50111 194.04 -2.80986e-05 162 -3.05176e-05L162 36.3846C186.844 36.3846 211.131 43.7518 231.788 57.5546C252.445 71.3574 268.546 90.9758 278.053 113.929C287.561 136.882 290.048 162.139 285.201 186.506C280.355 210.873 268.391 233.256 250.823 250.823L276.551 276.551Z" fill="#FF0000"/>
<path d="M276.551 276.551C291.594 261.508 303.527 243.649 311.668 223.995C319.809 204.34 324 183.274 324 162C324 140.726 319.809 119.66 311.668 100.005C303.527 80.3505 291.594 62.4918 276.551 47.4487L250.823 73.1765C262.488 84.8409 271.74 98.6887 278.053 113.929C284.366 129.169 287.615 145.504 287.615 162C287.615 178.496 284.366 194.831 278.053 210.071C271.74 225.311 262.488 239.159 250.823 250.823L276.551 276.551Z" fill="#8F3F97"/>
<path d="M276.551 276.551C291.594 261.508 303.527 243.649 311.668 223.995C319.809 204.34 324 183.274 324 162H287.615C287.615 178.496 284.366 194.831 278.053 210.071C271.74 225.311 262.488 239.159 250.823 250.823L276.551 276.551Z" fill="#7E0023"/>
</svg>
